<svg id="Layer_1" data-name="Layer 1" xmlns="http://www.w3.org/2000/svg" viewBox="0 0 130.35 44.39"><defs><style>.cls-1{fill:#004ea1;}.cls-2{fill:#fff;}</style></defs><title>logo</title><rect class="cls-1" x="69.07" y="16.21" width="2.66" height="20.92"/><path class="cls-1" d="M60.8,26.16a12.16,12.16,0,0,1-.93-5V16.86H57.08v4.3a11.62,11.62,0,0,1-1,5A5.75,5.75,0,0,1,53.41,29v2a4.82,4.82,0,0,0,1.53-.55,8.42,8.42,0,0,0,1.53-1,7.86,7.86,0,0,0,1.27-1.32,3.76,3.76,0,0,0,.69-1.39,3.26,3.26,0,0,0,.63,1.4,7.13,7.13,0,0,0,1.27,1.31,8.54,8.54,0,0,0,1.59,1,5.1,5.1,0,0,0,1.62.55V29A5.26,5.26,0,0,1,60.8,26.16Z" transform="translate(-0.2 -0.13)"/><polygon class="cls-1" points="64.74 22.68 61.31 22.68 61.31 24.52 64.74 24.52 64.74 37.12 67.4 37.12 67.4 16.21 64.74 16.21 64.74 22.68"/><path class="cls-1" d="M83.36,28.74c-3.63,0-6.58,2.17-6.58,4.86s3,4.86,6.58,4.86,6.56-2.18,6.56-4.86S87,28.74,83.36,28.74Zm0,7.88c-2.07,0-3.74-1.36-3.74-3s1.67-3,3.74-3,3.73,1.36,3.73,3S85.42,36.62,83.36,36.62Z" transform="translate(-0.2 -0.13)"/><path class="cls-1" d="M76,16.6v1.84h6c-.16.86-1.53,3.91-6.36,3.91v1.91c4.34,0,7.11-1.78,7.75-3.14.64,1.36,3.42,3.14,7.76,3.14V22.35c-4.84,0-6.2-3.05-6.36-3.91h6V16.6Z" transform="translate(-0.2 -0.13)"/><polygon class="cls-1" points="127.69 16.21 127.69 28.55 123 28.55 123 30.39 127.69 30.39 127.69 32.65 130.35 32.65 130.35 16.21 127.69 16.21"/><path class="cls-1" d="M119.18,35.11a.91.91,0,0,1-.33-.71V31.11h-2.66v3.52a2.73,2.73,0,0,0,.65,1.85,2,2,0,0,0,1.63.78h12.08V35.42H120A1.14,1.14,0,0,1,119.18,35.11Z" transform="translate(-0.2 -0.13)"/><path class="cls-1" d="M120,25.19c3,0,5.45-2,5.45-4.48S123,16.22,120,16.22s-5.47,2-5.47,4.49S117,25.19,120,25.19Zm0-7.13a2.65,2.65,0,1,1-2.69,2.65A2.67,2.67,0,0,1,120,18.06Z" transform="translate(-0.2 -0.13)"/><polygon class="cls-1" points="118.48 30.39 121.14 30.39 121.14 27.5 126.72 27.5 126.72 25.66 112.91 25.66 112.91 27.5 118.48 27.5 118.48 30.39"/><polygon class="cls-1" points="84.48 23.4 81.83 23.4 81.83 25.73 73.05 25.73 73.05 27.57 93.26 27.57 93.26 25.73 84.48 25.73 84.48 23.4"/><path class="cls-1" d="M108.74,18.82h-4.18v-2H101.9v3h-5v-3H94.27v7.3A2.69,2.69,0,0,0,95,26.06a2.31,2.31,0,0,0,1.73.78h7.83v-1.9h4.18v3h2.66V16.34h-2.66ZM101.9,25H98.1a1.28,1.28,0,0,1-.82-.29,1,1,0,0,1-.35-.78V21.71h5Zm6.84-1.91h-4.18V20.67h4.18Z" transform="translate(-0.2 -0.13)"/><path class="cls-1" d="M105.15,28.28c-3.41,0-6.18,2.28-6.18,5.09s2.77,5.09,6.18,5.09,6.19-2.28,6.19-5.09S108.57,28.28,105.15,28.28Zm0,8.34a3.25,3.25,0,1,1,3.35-3.25A3.31,3.31,0,0,1,105.15,36.62Z" transform="translate(-0.2 -0.13)"/><path class="cls-2" d="M33.42.13H.2v33h0c0,7.05,3,11.4,10.68,11.4h33.7V10.81C44.59,3.24,40.34.2,33.42.13Z" transform="translate(-0.2 -0.13)"/><path class="cls-1" d="M19.21,31a2.1,2.1,0,0,0-1.38-.59,14.1,14.1,0,0,0-1.9,0,1.79,1.79,0,0,0-1.41.62h0a5.19,5.19,0,0,0-.45,2.53,5.17,5.17,0,0,0,.45,2.52,1.79,1.79,0,0,0,1.41.57,14.1,14.1,0,0,0,1.9,0,2.07,2.07,0,0,0,1.38-.54l0,0a5.15,5.15,0,0,0,.45-2.52A5.17,5.17,0,0,0,19.24,31Z" transform="translate(-0.2 -0.13)"/><path class="cls-1" d="M33.42.13H11v5.3h5.55V11H11v5.54H5.49V11H.2V33.12h0c0,7.05,3,11.4,10.68,11.4h33.7V10.81C44.59,3.24,40.34.2,33.42.13ZM11.32,36A2.19,2.19,0,0,1,9,38.4H5.2V36.63H8.74c.7,0,.7-.56.7-.86V28.69h1.88Zm9.37,1.34h0a3.7,3.7,0,0,1-2.8,1.18,20.08,20.08,0,0,1-2,0,3.65,3.65,0,0,1-2.8-1.18,6.76,6.76,0,0,1-.88-3.77,6.77,6.77,0,0,1,.88-3.78,3.65,3.65,0,0,1,2.8-1.18,20.08,20.08,0,0,1,2,0,3.7,3.7,0,0,1,2.8,1.18,6.77,6.77,0,0,1,.88,3.78A6.76,6.76,0,0,1,20.69,37.32Zm9.75,1.09h-2L24.3,31.74v6.67H22.43V28.69h2l4.14,6.57V28.69h1.88ZM29.63,26a2.39,2.39,0,0,1-1.27.31h-6V24.57h5.56c.73,0,1-.78,1-1.13s-.24-1.11-1-1.11H24.55a2.3,2.3,0,0,1-1.71-.67A3.54,3.54,0,0,1,22,19.48a3.09,3.09,0,0,1,1.26-2.54,2.39,2.39,0,0,1,1.27-.32h5.87v1.79H25c-.74,0-1,.76-1,1.1a1.12,1.12,0,0,0,1,1.13h3.38a2.3,2.3,0,0,1,1.71.67,3.56,3.56,0,0,1,.82,2.18A3.06,3.06,0,0,1,29.63,26Zm5.73-9.41h4.27v1.79H35.54c-1.2,0-2,.81-2.21,2.21h6.3v1.7H33.32c.22,1.41,1,2.25,2.22,2.25h4.09v1.77H35.36c-2.46,0-4-1.92-4-4.86S32.9,16.62,35.36,16.62ZM39.74,34.4v4H35.37c-2.46,0-4-1.92-4-4.86s1.59-4.86,4-4.86h4.27v1.78H35.55c-1.43,0-2.28,1.16-2.28,3.08s.85,3.08,2.28,3.08h2.32V34.4H35.72V32.7h4Z" transform="translate(-0.2 -0.13)"/><rect class="cls-1" width="5.29" height="5.29"/></svg>